<svg width="25" height="25" viewBox="0 0 25 25" fill="none" xmlns="http://www.w3.org/2000/svg">
<path d="M22.5442 11.4393H6.21886L15.9901 2.95715C16.1463 2.82043 16.0514 2.56653 15.845 2.56653H13.3757C13.2668 2.56653 13.1636 2.60559 13.0827 2.67535L2.53861 11.8243C2.44204 11.9081 2.36459 12.0115 2.31151 12.1278C2.25843 12.2441 2.23096 12.3704 2.23096 12.4982C2.23096 12.626 2.25843 12.7523 2.31151 12.8685C2.36459 12.9848 2.44204 13.0883 2.53861 13.172L13.1441 22.3768C13.1859 22.4131 13.2362 22.4326 13.2892 22.4326H15.8422C16.0487 22.4326 16.1435 22.1759 15.9873 22.042L6.21886 13.5598H22.5442C22.667 13.5598 22.7674 13.4594 22.7674 13.3366V11.6625C22.7674 11.5397 22.667 11.4393 22.5442 11.4393Z" fill="#909399"/>
</svg>
