<svg width="25" height="25" viewBox="0 0 25 25" fill="none" xmlns="http://www.w3.org/2000/svg">
<path d="M22.4612 11.8243L11.9199 2.67535C11.839 2.60559 11.7358 2.56653 11.627 2.56653H9.15765C8.95117 2.56653 8.85631 2.82322 9.01256 2.95715L18.7838 11.4393H2.45564C2.33287 11.4393 2.23242 11.5397 2.23242 11.6625V13.3366C2.23242 13.4594 2.33287 13.5598 2.45564 13.5598H18.781L9.00977 22.042C8.85352 22.1787 8.94838 22.4326 9.15486 22.4326H11.7079C11.7609 22.4326 11.8139 22.4131 11.853 22.3768L22.4612 13.1748C22.5578 13.0908 22.6353 12.9871 22.6883 12.8706C22.7414 12.7541 22.7689 12.6276 22.7689 12.4996C22.7689 12.3716 22.7414 12.245 22.6883 12.1286C22.6353 12.0121 22.5578 11.9083 22.4612 11.8243V11.8243Z" fill="#909399"/>
</svg>
