<svg width="25" height="25" viewBox="0 0 25 25" fill="none" xmlns="http://www.w3.org/2000/svg">
<g clip-path="url(#clip0_327759_8336)">
<path d="M20.8539 8.50725C19.576 5.13393 16.3198 2.73438 12.5057 2.73438C8.69149 2.73438 5.43535 5.13114 4.15745 8.50446C1.7551 9.13784 -0.013869 11.3337 8.19404e-05 13.9397C0.016823 16.8527 2.27687 19.2215 5.12285 19.4754C5.25399 19.4866 5.36559 19.3834 5.36559 19.2522V17.567C5.36559 17.4554 5.28189 17.3605 5.17028 17.3465C4.41693 17.2517 3.70544 16.9224 3.15856 16.3839C2.48892 15.7282 2.12062 14.8465 2.12062 13.9118C2.12062 13.1306 2.37452 12.394 2.85164 11.7801C3.3176 11.183 3.9733 10.7506 4.69595 10.5608L5.75343 10.2818L6.14126 9.25781C6.38122 8.62165 6.71604 8.02455 7.13736 7.48605C7.55309 6.95033 8.04696 6.48158 8.59941 6.09096C9.74617 5.2846 11.0966 4.8577 12.5057 4.8577C13.9147 4.8577 15.2651 5.2846 16.4119 6.09375C16.9672 6.48438 17.4582 6.95312 17.874 7.48884C18.2953 8.02734 18.6301 8.62444 18.8701 9.2606L19.2551 10.2818L20.3098 10.5608C21.8221 10.9626 22.8795 12.3382 22.8795 13.909C22.8795 14.8465 22.5112 15.7254 21.8416 16.3811C21.2975 16.9169 20.5888 17.2489 19.8355 17.3438C19.7239 17.3577 19.6429 17.4526 19.6429 17.5642V19.2522C19.6429 19.3834 19.7573 19.4866 19.8885 19.4754C22.7261 19.2188 24.9805 16.8527 25.0001 13.9453C25.0168 11.3393 23.2506 9.14341 20.8539 8.50725Z" fill="#909399"/>
<path d="M8.73073 16.5348C8.78095 15.6001 9.16879 14.7295 9.83285 14.0627C10.5416 13.3512 11.507 12.9522 12.5114 12.9522C13.5215 12.9522 14.4729 13.3456 15.19 14.0627C15.2291 14.1017 15.2653 14.1408 15.3044 14.1827L14.6068 14.7295C14.5736 14.7552 14.5483 14.7898 14.5338 14.8293C14.5194 14.8687 14.5164 14.9114 14.5251 14.9525C14.5338 14.9936 14.554 15.0314 14.5833 15.0616C14.6125 15.0917 14.6497 15.113 14.6905 15.123L17.4305 15.7926C17.57 15.8261 17.7067 15.72 17.7067 15.5778L17.7207 12.7513C17.7207 12.5644 17.5086 12.4583 17.3608 12.5755L16.7134 13.0833C15.6922 11.9115 14.1911 11.1693 12.5142 11.1693C9.51756 11.1693 7.07336 13.5437 6.95059 16.518C6.94501 16.6436 7.04546 16.7496 7.17381 16.7496H8.5103C8.62749 16.7468 8.72515 16.6548 8.73073 16.5348ZM17.8295 16.7468H16.493C16.3758 16.7468 16.2782 16.8389 16.2698 16.9589C16.2196 17.8936 15.8317 18.7641 15.1677 19.431C14.459 20.1425 13.4936 20.5415 12.4891 20.5415C11.4791 20.5415 10.5276 20.1481 9.81053 19.431C9.77147 19.3919 9.73519 19.3529 9.69613 19.311L10.3937 18.7641C10.4269 18.7384 10.4522 18.7039 10.4667 18.6644C10.4811 18.625 10.4842 18.5822 10.4754 18.5411C10.4667 18.5 10.4465 18.4622 10.4172 18.4321C10.388 18.4019 10.3508 18.3807 10.31 18.3707L7.57001 17.7011C7.43051 17.6676 7.29379 17.7736 7.29379 17.9159L7.28263 20.7452C7.28263 20.9321 7.49468 21.0381 7.64256 20.9209L8.28988 20.4131C9.31109 21.585 10.8122 22.3272 12.4891 22.3272C15.4858 22.3272 17.9299 19.9527 18.0527 16.9784C18.0583 16.8529 17.9578 16.7468 17.8295 16.7468Z" fill="#909399"/>
</g>
<defs>
<clipPath id="clip0_327759_8336">
<rect width="25" height="25" fill="white"/>
</clipPath>
</defs>
</svg>
