<svg width="25" height="25" viewBox="0 0 25 25" fill="none" xmlns="http://www.w3.org/2000/svg">
<path d="M9.37472 7.08735H11.4367V16.5265C11.4367 16.6493 11.5371 16.7497 11.6599 16.7497H13.334C13.4568 16.7497 13.5572 16.6493 13.5572 16.5265V7.08735H15.6247C15.8117 7.08735 15.9149 6.87251 15.8005 6.72742L12.6755 2.77095C12.6546 2.74427 12.6279 2.72269 12.5975 2.70785C12.567 2.69301 12.5336 2.6853 12.4997 2.6853C12.4658 2.6853 12.4324 2.69301 12.402 2.70785C12.3715 2.72269 12.3448 2.74427 12.3239 2.77095L9.19894 6.72463C9.08454 6.87251 9.18778 7.08735 9.37472 7.08735ZM22.7118 15.6895H21.0377C20.9149 15.6895 20.8145 15.7899 20.8145 15.9127V20.2096H4.18499V15.9127C4.18499 15.7899 4.08454 15.6895 3.96177 15.6895H2.28767C2.1649 15.6895 2.06445 15.7899 2.06445 15.9127V21.4372C2.06445 21.9311 2.46345 22.3301 2.95731 22.3301H22.0421C22.536 22.3301 22.935 21.9311 22.935 21.4372V15.9127C22.935 15.7899 22.8345 15.6895 22.7118 15.6895Z" fill="#909399"/>
</svg>
